<svg height="512pt" viewBox="0 0 512 512" width="512pt" xmlns="http://www.w3.org/2000/svg"><path d="m405.617188 284.484375h-142.859376v-146.722656c0-4.132813-3.347656-7.484375-7.480468-7.484375-4.132813 0-7.484375 3.351562-7.484375 7.484375v146.722656h-142.859375c-16.390625 0-29.722656 13.335937-29.722656 29.726563v32.527343c0 4.132813 3.347656 7.480469 7.480468 7.480469 4.132813 0 7.484375-3.347656 7.484375-7.480469v-32.527343c0-8.140626 6.621094-14.757813 14.757813-14.757813h142.859375v125.652344c0 4.132812 3.351562 7.484375 7.484375 7.484375 4.132812 0 7.480468-3.351563 7.480468-7.484375v-125.652344h142.859376c8.140624 0 14.757812 6.617187 14.757812 14.757813v32.527343c0 4.132813 3.351562 7.480469 7.484375 7.480469s7.484375-3.347656 7.484375-7.480469v-32.527343c0-16.390626-13.335938-29.726563-29.726562-29.726563zm0 0" fill="#738c96"/><path d="m150.464844 436.023438h-132.980469c-5.523437 0-10-4.476563-10-10v-84.871094c0-5.523438 4.476563-10 10-10h132.980469c5.523437 0 10 4.476562 10 10v84.871094c0 5.523437-4.476563 10-10 10zm0 0" fill="#ffe046"/><path d="m494.515625 436.023438h-132.980469c-5.523437 0-10-4.476563-10-10v-84.871094c0-5.523438 4.476563-10 10-10h132.980469c5.523437 0 10 4.476562 10 10v84.871094c0 5.523437-4.476563 10-10 10zm0 0" fill="#ffe046"/><path d="m321.804688 504.195312h-132.984376c-5.519531 0-10-4.476562-10-10v-84.871093c0-5.519531 4.480469-10 10-10h132.984376c5.519531 0 10 4.480469 10 10v84.871093c0 5.523438-4.480469 10-10 10zm0 0" fill="#ffe046"/><g fill="#eec707"><path d="m150.488281 331.152344h-16.628906v82.949218c0 5.511719-4.46875 9.976563-9.976563 9.976563h-116.398437v1.96875c0 5.507813 4.464844 9.976563 9.976563 9.976563h133.027343c5.507813 0 9.976563-4.46875 9.976563-9.976563v-84.914063c0-5.511718-4.46875-9.980468-9.976563-9.980468zm0 0"/><path d="m494.539062 331.152344h-16.628906v82.949218c0 5.511719-4.464844 9.976563-9.976562 9.976563h-116.398438v1.96875c0 5.507813 4.46875 9.976563 9.976563 9.976563h133.027343c5.511719 0 9.976563-4.46875 9.976563-9.976563v-84.914063c0-5.511718-4.464844-9.980468-9.976563-9.980468zm0 0"/><path d="m321.824219 399.324219h-16.628907v82.953125c0 5.507812-4.464843 9.976562-9.976562 9.976562h-116.398438v1.964844c0 5.511719 4.46875 9.976562 9.980469 9.976562h133.023438c5.511719 0 9.980469-4.464843 9.980469-9.976562v-84.914062c0-5.511719-4.46875-9.980469-9.980469-9.980469zm0 0"/><path d="m151.632812 331.152344h-92.621093v-8.085938c0-4.875-3.953125-8.832031-8.832031-8.832031h-33.863282c-4.878906 0-8.832031 3.957031-8.832031 8.832031v33.269532h152.980469v-16.351563c0-4.878906-3.953125-8.832031-8.832032-8.832031zm0 0"/><path d="m495.6875 331.152344h-92.625v-8.085938c0-4.875-3.953125-8.832031-8.832031-8.832031h-33.863281c-4.878907 0-8.832032 3.957031-8.832032 8.832031v33.269532h152.980469v-16.351563c0-4.878906-3.953125-8.832031-8.828125-8.832031zm0 0"/><path d="m322.972656 399.324219h-92.621094v-8.082031c0-4.878907-3.957031-8.832032-8.832031-8.832032h-33.867187c-4.875 0-8.832032 3.953125-8.832032 8.832032v33.265624h152.984376v-16.351562c0-4.875-3.957032-8.832031-8.832032-8.832031zm0 0"/></g><path d="m151.632812 331.152344h-28.1875v11.367187c0 2.207031-1.789062 3.992188-3.992187 3.992188h-111.96875v9.824219h152.980469v-16.351563c0-4.878906-3.953125-8.832031-8.832032-8.832031zm0 0" fill="#fba72d"/><path d="m495.6875 331.152344h-28.191406v11.367187c0 2.207031-1.785156 3.992188-3.988282 3.992188h-111.972656v9.824219h152.980469v-16.351563c0-4.878906-3.953125-8.832031-8.828125-8.832031zm0 0" fill="#fba72d"/><path d="m322.972656 399.324219h-28.191406v11.371093c0 2.203126-1.785156 3.988282-3.988281 3.988282h-111.972657v9.824218h152.984376v-16.351562c0-4.875-3.957032-8.832031-8.832032-8.832031zm0 0" fill="#fba72d"/><path d="m378.78125 130.988281c0 68.207031-55.296875 123.503907-123.503906 123.503907-68.210938 0-123.507813-55.296876-123.507813-123.503907 0-68.210937 55.296875-123.507812 123.507813-123.507812 68.207031 0 123.503906 55.296875 123.503906 123.507812zm0 0" fill="#bce8f1"/><path d="m298.660156 15.324219c27.65625 22.652343 45.304688 57.058593 45.304688 95.59375 0 68.210937-55.292969 123.503906-123.503906 123.503906-15.269532 0-29.886719-2.777344-43.386719-7.84375 21.296875 17.445313 48.527343 27.914063 78.203125 27.914063 68.207031 0 123.503906-55.296876 123.503906-123.507813 0-52.9375-33.3125-98.09375-80.121094-115.660156zm0 0" fill="#95dae8"/><path d="m386.261719 131.066406c0-.027344.003906-.050781.003906-.078125 0-.023437-.003906-.050781-.003906-.078125-.039063-72.191406-58.785157-130.910156-130.984375-130.910156-72.210938 0-130.960938 58.734375-130.988282 130.9375 0 .015625-.003906.035156-.003906.050781 0 .019531.003906.035157.003906.050781.027344 72.167969 58.722657 130.878907 130.882813 130.933594.035156 0 .066406.003906.101563.003906.035156 0 .070312-.003906.105468-.003906 72.152344-.054687 130.839844-58.75 130.882813-130.90625zm-15.210938-7.558594h-44.328125c-1.851562-41.28125-18.835937-79.515624-46.335937-105.796874 49.582031 10.984374 87.335937 53.78125 90.664062 105.796874zm-123.257812-101.398437v101.398437h-48.984375c1.996094-40.730468 20.128906-78.007812 48.984375-101.398437zm0 116.363281v101.476563c-28.875-23.40625-47.007813-60.714844-48.988281-101.476563zm14.964843 101.472656v-101.472656h48.988282c-1.976563 40.757813-20.109375 78.066406-48.988282 101.472656zm0-116.4375v-101.398437c28.859376 23.390625 46.988282 60.667969 48.988282 101.398437zm-32.59375-105.796874c-27.496093 26.28125-44.480468 64.515624-46.332031 105.796874h-44.328125c3.324219-52.015624 41.078125-94.8125 90.660156-105.796874zm-90.660156 120.761718h44.324219c1.832031 41.253906 18.777344 79.46875 46.226563 105.765625-49.527344-11.023437-87.226563-53.792969-90.550782-105.765625zm140.996094 105.765625c27.449219-26.296875 44.394531-64.511719 46.222656-105.765625h44.328125c-3.328125 51.972656-41.023437 94.742188-90.550781 105.765625zm0 0" fill="#7cd2e3"/><path d="m495.6875 323.671875h-60.34375v-9.460937c0-16.390626-13.335938-29.726563-29.726562-29.726563h-142.859376v-22.726563c68.757813-3.894531 123.503907-61.054687 123.503907-130.769531 0-72.226562-58.757813-130.988281-130.984375-130.988281-72.226563 0-130.988282 58.761719-130.988282 130.988281 0 69.714844 54.746094 126.875 123.503907 130.769531v22.726563h-142.859375c-16.390625 0-29.722656 13.335937-29.722656 29.726563v9.460937h-8.71875v-.605469c0-8.996094-7.316407-16.3125-16.3125-16.3125h-33.863282c-8.996094 0-16.316406 7.320313-16.316406 16.3125v102.980469c0 9.625 7.832031 17.460937 17.460938 17.460937h133.027343c9.625 0 17.460938-7.835937 17.460938-17.460937v-86.0625c0-8.996094-7.320313-16.3125-16.316407-16.3125h-61.457031v-9.460937c0-8.140626 6.621094-14.757813 14.757813-14.757813h142.859375v92.390625h-9.960938v-.601562c0-8.996094-7.316406-16.316407-16.3125-16.316407h-33.867187c-8.996094 0-16.3125 7.320313-16.3125 16.316407v102.976562c0 9.625 7.832031 17.460938 17.460937 17.460938h21.578125c4.132813 0 7.480469-3.351563 7.480469-7.484376 0-4.132812-3.347656-7.484374-7.480469-7.484374h-21.578125c-1.375 0-2.496093-1.117188-2.496093-2.492188v-62.230469h138.015624v62.230469c0 1.375-1.117187 2.492188-2.492187 2.492188h-79.242187c-4.132813 0-7.484376 3.351562-7.484376 7.484374 0 4.132813 3.351563 7.484376 7.484376 7.484376h79.242187c9.625 0 17.457031-7.835938 17.457031-17.460938v-86.0625c0-8.996094-7.316406-16.3125-16.3125-16.3125h-60.210937v-92.394531h142.855469c8.140624 0 14.761718 6.621093 14.761718 14.761719v9.457031h-9.832031v-.601563c0-8.996094-7.316406-16.3125-16.3125-16.3125h-33.867187c-8.996094 0-16.3125 7.316406-16.3125 16.3125v102.980469c0 9.625 7.832031 17.457031 17.460937 17.457031h133.023437c9.628907 0 17.460938-7.832031 17.460938-17.457031v-86.0625c0-8.996094-7.316406-16.3125-16.3125-16.3125zm-342.707031 16.3125v86.0625c0 1.375-1.117188 2.492187-2.492188 2.492187h-133.027343c-1.375 0-2.496094-1.117187-2.496094-2.492187v-62.230469h113.585937c4.132813 0 7.484375-3.347656 7.484375-7.480468 0-4.132813-3.351562-7.484376-7.484375-7.484376h-113.582031v-25.785156c0-.742187.601562-1.347656 1.347656-1.347656h33.863282c.742187 0 1.347656.605469 1.347656 1.347656v8.085938c0 4.132812 3.351562 7.484375 7.484375 7.484375h92.621093c.746094 0 1.347657.605469 1.347657 1.347656zm171.339843 68.171875v8.867188h-138.015624v-25.78125c0-.746094.605468-1.351563 1.347656-1.351563h33.863281c.746094 0 1.347656.605469 1.347656 1.351563v8.082031c0 4.136719 3.351563 7.484375 7.484375 7.484375h92.625c.742188 0 1.347656.605468 1.347656 1.347656zm-61.5625-168.210938v-101.472656h48.988282c-1.976563 40.757813-20.109375 78.066406-48.988282 101.472656zm0-116.4375v-101.398437c28.859376 23.390625 46.988282 60.667969 48.988282 101.398437zm-14.964843-101.398437v101.398437h-48.984375c1.996094-40.730468 20.128906-78.007812 48.984375-101.398437zm0 116.363281v101.476563c-28.875-23.40625-47.007813-60.714844-48.988281-101.476563zm32.707031 105.765625c27.449219-26.296875 44.394531-64.511719 46.222656-105.765625h44.328125c-3.328125 51.972656-41.023437 94.742188-90.550781 105.765625zm90.550781-120.730469h-44.328125c-1.851562-41.28125-18.835937-79.515624-46.335937-105.796874 49.582031 10.984374 87.335937 53.78125 90.664062 105.796874zm-140.886719-105.796874c-27.496093 26.28125-44.480468 64.515624-46.332031 105.796874h-44.328125c3.324219-52.015624 41.078125-94.8125 90.660156-105.796874zm-90.660156 120.761718h44.324219c1.832031 41.253906 18.777344 79.46875 46.226563 105.765625-49.527344-11.023437-87.226563-53.792969-90.550782-105.765625zm357.53125 287.574219c0 1.375-1.121094 2.492187-2.496094 2.492187h-133.027343c-1.375 0-2.492188-1.117187-2.492188-2.492187v-62.230469h114.285157c4.132812 0 7.480468-3.347656 7.480468-7.480468 0-4.132813-3.347656-7.484376-7.480468-7.484376h-114.285157v-25.785156c0-.742187.605469-1.347656 1.347657-1.347656h33.863281c.746093 0 1.351562.605469 1.351562 1.347656v8.085938c0 4.132812 3.347657 7.484375 7.480469 7.484375h92.625c.742188 0 1.347656.605469 1.347656 1.347656zm0 0"/></svg>